<svg width="372" height="612" viewBox="0 0 372 612" fill="none" xmlns="http://www.w3.org/2000/svg">
<path d="M47.6598 38.6043C48.6431 65.4007 25.4204 78.0145 9.28855 81.008C4.8065 81.8397 0.97168 85.5064 0.97168 90.065V510.391C0.97168 523.716 10.395 535.121 23.3256 538.338C103.82 558.368 165.919 594.007 189.381 611.297C190.064 611.8 190.965 611.8 191.672 611.332C253.586 570.35 312.714 548.199 348.376 538.522C361.663 534.917 371.664 523.163 371.664 509.396V85.4189C371.664 81.4904 368.743 78.1856 364.921 77.2793C324.919 67.7955 357.993 41.6593 326.459 33.3866C325.904 33.2411 325.319 33.0361 324.803 32.7866C210.743 -22.3607 99.0858 5.66624 51.9061 30.5441C48.9985 32.0773 47.5392 35.3195 47.6598 38.6043Z" fill="url(#paint0_linear_22_17)"/>
<defs>
<linearGradient id="paint0_linear_22_17" x1="186.318" y1="-0.58717" x2="186.318" y2="612.119" gradientUnits="userSpaceOnUse">
<stop stop-color="#90CB25"/>
<stop offset="0.0001" stop-color="#3F3E3E"/>
</linearGradient>
</defs>
</svg>
